<?xml version="1.0" encoding="utf-8"?>
<!-- Generator: Adobe Illustrator 25.3.1, SVG Export Plug-In . SVG Version: 6.00 Build 0)  -->
<svg version="1.1" xmlns="http://www.w3.org/2000/svg" xmlns:xlink="http://www.w3.org/1999/xlink" x="0px" y="0px"
	 viewBox="0 0 100 100" style="enable-background:new 0 0 100 100;" xml:space="preserve">
<style type="text/css">
	.st0{display:none;}
	.st1{display:inline;}
	.st2{fill:none;stroke:#2E5A4B;stroke-width:2.8083;stroke-linecap:round;stroke-linejoin:round;stroke-miterlimit:10;}
	.st3{fill:none;stroke:#2E5B4B;stroke-width:3.2774;stroke-linecap:round;stroke-linejoin:round;stroke-miterlimit:10;}
	.st4{fill:none;stroke:#2E5B4B;stroke-width:2.5619;stroke-linejoin:round;stroke-miterlimit:10;}
	.st5{fill:none;stroke:#2E5B4B;stroke-width:1.0979;stroke-miterlimit:10;}
	.st6{fill:none;stroke:#2E5B4B;stroke-width:2.5619;stroke-linecap:round;stroke-linejoin:round;stroke-miterlimit:10;}
	.st7{fill:#2E5B4B;}
	.st8{fill:none;stroke:#2E5B4B;stroke-width:3.1219;stroke-miterlimit:10;}
	.st9{fill:none;stroke:#3E564C;stroke-linecap:round;stroke-linejoin:round;stroke-miterlimit:10;}
	.st10{fill:none;stroke:#2E5C4B;stroke-width:2.8312;stroke-linejoin:round;stroke-miterlimit:10;}
</style>
<g id="Camada_1" class="st0">
	<g class="st1">
		<path class="st2" d="M23.44,32.37c-6.52,0-11.79,5.27-11.79,11.79c0,6.52,5.27,11.79,11.79,11.79"/>
		<path class="st2" d="M49.9,32.37c-6.52,0-11.79-5.27-11.79-11.75V8.84"/>
		<path class="st2" d="M29.31,55.94c-6.52,0-11.79,5.27-11.79,11.75c0,6.52,5.27,11.79,11.79,11.79"/>
		<path class="st2" d="M76.37,67.69c6.52,0,11.79-5.27,11.79-11.75c0-6.52-5.27-11.79-11.79-11.79"/>
		<path class="st2" d="M70.5,44.16c6.52,0,11.79-5.27,11.79-11.79c0-6.48-5.27-11.75-11.79-11.75"/>
		<path class="st2" d="M49.9,67.69c6.52,0,11.79,5.27,11.79,11.79v11.75"/>
		<line class="st2" x1="73.43" y1="55.94" x2="23.44" y2="55.94"/>
		<line class="st2" x1="67.56" y1="32.37" x2="23.44" y2="32.37"/>
		<path class="st2" d="M70.5,20.63H52.85c-1.63,0-2.94-1.32-2.94-2.94V8.84"/>
		<line class="st2" x1="76.37" y1="44.16" x2="26.37" y2="44.16"/>
		<line class="st2" x1="76.37" y1="67.69" x2="29.31" y2="67.69"/>
		<path class="st2" d="M29.31,79.48h17.65c1.62,0,2.94,1.32,2.94,2.94v8.84"/>
	</g>
</g>
<g id="Camada_2" class="st0">
	<g class="st1">
		<path class="st3" d="M66.63,27.31c13.11,0,24.58,27.55,24.58,42.61s-1.84,16.39-6.55,16.39c-4.71,0-4.92-4.37-9.83-4.37
			c-3.58,0-4.84,1.04-9.78,1.04c-4.35,0-6.61-5.48-6.61-24.53C58.43,44.09,60.49,27.31,66.63,27.31z"/>
		<path class="st3" d="M33.85,27.31c-13.11,0-24.58,27.55-24.58,42.61s1.84,16.39,6.55,16.39s4.92-4.37,9.83-4.37
			c3.58,0,4.84,1.04,9.78,1.04c4.35,0,6.61-5.48,6.61-24.53C42.05,44.09,39.99,27.31,33.85,27.31z"/>
		<path class="st3" d="M53.52,7.65v27.71c0,1.16,0.34,2.3,0.97,3.28l3.68,5.65c0.48,0.73,1.11,1.35,1.85,1.82l6.61,4.14l6.55,4.92
			l3.28,8.19l6.55,3.28"/>
		<path class="st3" d="M46.96,7.65v27.71c0,1.16-0.34,2.3-0.97,3.28l-3.68,5.65c-0.48,0.73-1.11,1.35-1.85,1.82l-6.61,4.14
			l-6.55,4.92l-3.28,8.19l-6.55,3.28"/>
		<path class="st3" d="M35.49,71.56v-4.92l-3.28-4.92l9.83-8.19l3.94-3.94c2.35-2.35,6.16-2.35,8.51,0l3.94,3.94l9.83,8.19
			l-3.28,4.92v4.92"/>
		<line class="st3" x1="68.26" y1="61.73" x2="71.54" y2="69.92"/>
		<line class="st3" x1="32.21" y1="61.73" x2="28.94" y2="69.92"/>
		<polyline class="st3" points="66.63,50.26 69.9,43.7 69.9,38.78 		"/>
		<polyline class="st3" points="33.85,50.26 30.57,43.7 30.57,38.78 		"/>
		<line class="st3" x1="69.9" y1="43.7" x2="74.82" y2="43.7"/>
		<line class="st3" x1="30.57" y1="43.7" x2="25.66" y2="43.7"/>
		<line class="st3" x1="73.18" y1="55.17" x2="79.74" y2="56.81"/>
		<line class="st3" x1="27.3" y1="55.17" x2="20.74" y2="56.81"/>
	</g>
</g>
<g id="Camada_3" class="st0">
	<g class="st1">
		<path class="st4" d="M69.26,75.24c3.91-3.52,6.37-8.61,6.37-14.28c0-10.61-8.61-19.21-19.21-19.21S37.2,50.36,37.2,60.96
			c0,10.41,8.29,18.89,18.62,19.2"/>
		<path class="st5" d="M69.26,75.24"/>
		<path class="st5" d="M66.5,77.31"/>
		<path class="st5" d="M63.85,72.93"/>
		<path class="st5" d="M66.58,70.72"/>
		<path class="st4" d="M52.59,74.53c-2.36-0.65-4.47-1.92-6.15-3.6c-2.55-2.55-4.12-6.07-4.12-9.97c0-7.79,6.3-14.09,14.09-14.09
			c3.89,0,7.42,1.58,9.97,4.12c2.55,2.55,4.12,6.07,4.12,9.97c0,3.8-1.49,7.23-3.92,9.76"/>
		<path class="st6" d="M62.65,42.79c-13.12-5.03-19.39-12.02-27.57-22.54c-1.76-2.27-4.39-3.73-7.27-4.05
			c-2.88-0.32-5.78,0.53-8.01,2.36c-0.52,0.43-0.98,0.88-1.35,1.33c-2.54,3.06-3.56,7.09-2.76,10.96
			c2.27,11.81,10.98,28.88,27.66,44.2"/>
		<path class="st6" d="M23.84,39.79c1.88,4.46,4.53,9.38,8.05,14.47"/>
		<path class="st6" d="M20.7,29.82c0.24,1.24,0.56,2.58,0.98,3.98"/>
		<g>
			<path class="st6" d="M85.9,73.63c-2.21-2.01-6.6-1.29-9.8,1.62c-3.2,2.91-4,6.9-1.78,8.91c2.21,2.01,6.6,1.29,9.8-1.62
				C87.32,79.63,88.11,75.64,85.9,73.63z"/>
			<path class="st6" d="M83.31,76.47c0.12,0.3-0.2,1.78-1.78,3.22c-1.43,1.3-2.96,1.76-3.91,1.76l0,0"/>
		</g>
		<g>
			<path class="st6" d="M53.82,71.07c2.21-2.01,6.6-1.29,9.8,1.62c3.2,2.91,4,6.9,1.78,8.91c-2.21,2.01-6.6,1.29-9.8-1.62
				C52.4,77.07,51.61,73.08,53.82,71.07z"/>
			<path class="st6" d="M56.4,73.91c-0.12,0.3,0.2,1.78,1.78,3.22c1.43,1.3,2.96,1.76,3.91,1.76l0,0"/>
		</g>
		<g>
			<path class="st6" d="M59.14,65.3c-1.42-1.4-0.92-4.2,1.11-6.23c2.03-2.04,4.82-2.56,6.24-1.15c1.42,1.4,0.92,4.19-1.11,6.23
				C63.35,66.18,60.56,66.7,59.14,65.3z"/>
		</g>
		<g>
			<path class="st6" d="M52.01,64.71c2.09-0.53,3.45-3.22,3.05-6c-0.4-2.78-2.41-4.6-4.49-4.07c-2.09,0.53-3.45,3.22-3.05,6
				C47.91,63.42,49.92,65.24,52.01,64.71z"/>
		</g>
		<path class="st6" d="M51.29,58.48c0,0-0.64,1.2,0,2.48"/>
		<path class="st6" d="M63.65,60.96c-0.01,0.5-0.77,1.47-1.64,1.57"/>
	</g>
</g>
<g id="Camada_4" class="st0">
	<g class="st1">
		<g>
			<g>
				<path class="st7" d="M65.01,87.74c-2.8,0-5.47-1.64-6.64-4.37l-0.11-0.25c-0.76-1.77-0.79-3.73-0.07-5.53
					c0.72-1.79,2.09-3.2,3.86-3.96l16.98-7.29c1.77-0.76,3.73-0.79,5.53-0.07c1.79,0.72,3.2,2.09,3.96,3.86l0.11,0.25
					c0.76,1.77,0.79,3.73,0.07,5.53c-0.72,1.79-2.09,3.2-3.86,3.96l-16.98,7.29C66.92,87.55,65.96,87.74,65.01,87.74z M81.87,68.12
					c-0.65,0-1.3,0.13-1.92,0.4L62.97,75.8c-1.19,0.51-2.12,1.46-2.6,2.66s-0.46,2.53,0.05,3.72l0.11,0.25
					c0.51,1.19,1.46,2.12,2.66,2.6c1.21,0.48,2.53,0.46,3.72-0.05L83.9,77.7l0,0c2.46-1.06,3.61-3.92,2.55-6.38l-0.11-0.25
					c-0.51-1.19-1.46-2.12-2.66-2.6C83.09,68.23,82.48,68.12,81.87,68.12z"/>
				<path class="st7" d="M74.53,84.17c-0.22,0-0.45-0.06-0.65-0.2c-0.54-0.36-0.69-1.09-0.33-1.63l1.18-1.78
					c0.61-0.92,0.93-1.98,0.93-3.08c0-2.47-1.66-4.68-4.04-5.36l-0.45-0.13c-0.63-0.18-0.99-0.83-0.81-1.46
					c0.18-0.63,0.83-0.99,1.46-0.81l0.45,0.13c3.38,0.97,5.74,4.11,5.74,7.63c0,1.57-0.46,3.08-1.32,4.39l-1.18,1.78
					C75.29,83.99,74.91,84.17,74.53,84.17z"/>
			</g>
			<g>
				<path class="st7" d="M41.7,86.88c-0.91,0-1.81-0.17-2.68-0.52L21.86,79.5c-1.79-0.72-3.2-2.09-3.96-3.86
					c-0.76-1.77-0.79-3.73-0.07-5.53l0.1-0.26c1.48-3.7,5.69-5.5,9.38-4.03l0,0l17.16,6.85c3.7,1.48,5.5,5.69,4.03,9.38l-0.1,0.26
					c-0.72,1.79-2.09,3.2-3.86,3.96C43.63,86.68,42.67,86.88,41.7,86.88z M24.65,67.68c-1.93,0-3.76,1.16-4.52,3.06L20.03,71
					c-0.48,1.21-0.46,2.53,0.05,3.72c0.51,1.19,1.46,2.12,2.66,2.6l17.16,6.85c1.21,0.48,2.53,0.46,3.72-0.05
					c1.19-0.51,2.12-1.46,2.6-2.66l0.1-0.26c0.99-2.49-0.22-5.32-2.71-6.32l-17.16-6.85C25.86,67.79,25.25,67.68,24.65,67.68z"/>
				<path class="st7" d="M30.37,82.82c-0.42,0-0.82-0.22-1.03-0.61l-0.23-0.41c-1.7-3.08-1.16-6.97,1.33-9.46
					c1.11-1.11,2.5-1.86,4.04-2.17l2.1-0.42c0.64-0.13,1.26,0.28,1.39,0.92c0.13,0.64-0.28,1.26-0.92,1.39l-2.1,0.42
					c-1.08,0.22-2.06,0.74-2.84,1.52c-1.75,1.75-2.13,4.48-0.94,6.65l0.23,0.41c0.32,0.57,0.11,1.29-0.46,1.6
					C30.76,82.77,30.56,82.82,30.37,82.82z"/>
			</g>
			<g>
				<path class="st7" d="M56.23,75.66c-0.16,0-0.31-0.03-0.46-0.1l-6.85-2.94c-1.81-0.77-3.2-2.21-3.93-4.03
					c-0.73-1.82-0.7-3.82,0.07-5.63c0.77-1.81,2.21-3.2,4.03-3.93c1.83-0.73,3.82-0.7,5.63,0.07L70.79,66
					c0.6,0.26,0.88,0.95,0.62,1.55c-0.26,0.6-0.95,0.88-1.55,0.62l-16.07-6.9c-1.23-0.53-2.59-0.54-3.83-0.05
					c-1.24,0.5-2.21,1.44-2.74,2.67c-0.53,1.23-0.54,2.59-0.05,3.83c0.5,1.24,1.44,2.21,2.67,2.74l6.85,2.94
					c0.6,0.26,0.88,0.95,0.62,1.55C57.13,75.39,56.69,75.66,56.23,75.66z"/>
				<path class="st7" d="M56.23,75.66c-0.42,0-0.82-0.22-1.04-0.61c-1.16-2.12-1.06-4.51-1.03-4.91c0.02-3.47,2.44-6.59,5.91-7.58
					l1.03-0.29c0.63-0.18,1.28,0.19,1.46,0.81c0.18,0.63-0.19,1.28-0.81,1.46l-1.02,0.29c-2.43,0.7-4.2,2.95-4.2,5.36
					c0,0.03,0,0.07,0,0.1c0,0.02-0.15,2,0.75,3.64c0.31,0.57,0.1,1.29-0.47,1.6C56.62,75.61,56.43,75.66,56.23,75.66z"/>
			</g>
			<g>
				<path class="st7" d="M77.38,66.04c-0.46,0-0.89-0.27-1.08-0.71c-0.26-0.6,0.02-1.29,0.62-1.55l6.85-2.94
					c1.23-0.53,2.18-1.5,2.67-2.74c0.5-1.24,0.48-2.6-0.05-3.83c-0.53-1.23-1.5-2.18-2.74-2.67c-1.24-0.5-2.6-0.48-3.83,0.05
					l-18.26,8.08c-0.6,0.26-1.29-0.01-1.56-0.6c-0.26-0.6,0.01-1.29,0.6-1.56l18.27-8.09c1.82-0.78,3.82-0.81,5.64-0.08
					c1.83,0.73,3.26,2.13,4.03,3.93c0.78,1.81,0.8,3.81,0.07,5.63C87.9,60.8,86.5,62.23,84.7,63l-6.85,2.94
					C77.7,66.01,77.54,66.04,77.38,66.04z"/>
				<path class="st7" d="M77.38,66.04c-0.19,0-0.39-0.05-0.56-0.14c-0.57-0.31-0.78-1.03-0.47-1.6c0.9-1.64,0.75-3.62,0.75-3.64
					c0-0.03,0-0.07,0-0.1c0-2.41-1.77-4.66-4.2-5.36l-1.02-0.29c-0.63-0.18-0.99-0.83-0.81-1.46c0.18-0.63,0.83-0.99,1.46-0.81
					l1.02,0.29c3.47,1,5.89,4.11,5.91,7.59c0.03,0.41,0.13,2.79-1.03,4.91C78.2,65.82,77.8,66.04,77.38,66.04z"/>
			</g>
		</g>
		<g>
			<path class="st7" d="M27.96,58.44c-4.58,0-8.56-1.51-11.45-4.4c-3.68-3.68-5.12-9.12-4.07-15.31c1.03-6.04,4.34-12.11,9.32-17.09
				s11.05-8.29,17.09-9.32c6.19-1.06,11.63,0.39,15.31,4.07l0,0l0,0c3.68,3.68,5.12,9.12,4.07,15.31
				c-1.03,6.04-4.34,12.11-9.32,17.09c-4.98,4.98-11.05,8.29-17.09,9.32C30.5,58.32,29.21,58.44,27.96,58.44z M42.7,14.34
				c-1.11,0-2.26,0.1-3.45,0.3c-5.57,0.95-11.18,4.03-15.82,8.66c-4.63,4.63-7.71,10.25-8.66,15.82
				c-0.93,5.42,0.28,10.12,3.41,13.24c2.51,2.51,5.97,3.72,9.82,3.72c6.2,0,13.4-3.13,19.24-8.97c4.63-4.63,7.71-10.25,8.66-15.82
				c0.93-5.42-0.28-10.12-3.41-13.24l0,0C50.06,15.61,46.65,14.34,42.7,14.34z"/>
			<path class="st7" d="M33.55,39.22c-0.93,0-1.78-0.32-2.39-0.93c-0.76-0.76-1.08-1.89-0.87-3.1c0.18-1.08,0.76-2.15,1.63-3.02
				c1.93-1.93,4.62-2.27,6.13-0.76c1.5,1.5,1.17,4.2-0.76,6.13c-0.87,0.87-1.94,1.45-3.02,1.63C34.02,39.2,33.78,39.22,33.55,39.22z
				 M35.67,32.82c-0.6,0-1.4,0.33-2.08,1c-0.52,0.52-0.87,1.16-0.98,1.75c-0.04,0.26-0.08,0.75,0.21,1.04
				c0.29,0.29,0.78,0.26,1.04,0.21c0.59-0.1,1.23-0.46,1.75-0.98c0.52-0.52,0.87-1.16,0.98-1.75c0.04-0.26,0.08-0.75-0.21-1.04
				C36.22,32.9,35.97,32.82,35.67,32.82z"/>
			<path class="st7" d="M35.61,32.68c-0.12,0-0.25-0.02-0.37-0.06c-0.62-0.2-0.95-0.87-0.75-1.49l3.76-11.39
				c0.2-0.62,0.87-0.95,1.49-0.75c0.62,0.2,0.95,0.87,0.75,1.49l-3.76,11.39C36.57,32.37,36.1,32.68,35.61,32.68z"/>
			<path class="st7" d="M38.08,35.06c-0.56,0-1.06-0.4-1.16-0.97c-0.11-0.64,0.31-1.25,0.96-1.37l13.45-2.38
				c0.64-0.11,1.25,0.31,1.37,0.96c0.11,0.64-0.31,1.25-0.96,1.37l-13.45,2.38C38.22,35.06,38.15,35.06,38.08,35.06z"/>
			<path class="st7" d="M40.89,48.41c-0.42,0-0.83-0.23-1.04-0.63l-5.1-9.68c-0.3-0.58-0.08-1.29,0.49-1.59
				c0.58-0.3,1.29-0.08,1.59,0.49l5.1,9.68c0.3,0.58,0.08,1.29-0.49,1.59C41.26,48.36,41.07,48.41,40.89,48.41z"/>
			<path class="st7" d="M24.13,49.99c-0.25,0-0.49-0.08-0.7-0.23c-0.52-0.39-0.63-1.13-0.24-1.65l8-10.73
				c0.39-0.52,1.13-0.63,1.65-0.24c0.52,0.39,0.63,1.13,0.24,1.65l-8,10.73C24.85,49.82,24.49,49.99,24.13,49.99z"/>
			<path class="st7" d="M31.54,35.31c-0.09,0-0.17-0.01-0.26-0.03l-9.14-2.08c-0.64-0.14-1.03-0.78-0.89-1.41
				c0.14-0.64,0.78-1.03,1.41-0.89l9.14,2.08c0.64,0.14,1.03,0.78,0.89,1.41C32.56,34.94,32.08,35.31,31.54,35.31z"/>
		</g>
		<path class="st7" d="M65.56,54.09c-0.04,0-0.08,0-0.11-0.01c-0.65-0.06-1.12-0.64-1.06-1.29c1.17-12.15-2.12-20.95-5.09-26.2
			c-3.2-5.64-6.66-8.43-6.69-8.46c-0.51-0.41-0.59-1.15-0.19-1.66c0.41-0.51,1.15-0.59,1.66-0.19c0.16,0.12,3.86,3.11,7.28,9.14
			c3.14,5.54,6.62,14.82,5.39,27.59C66.67,53.63,66.16,54.09,65.56,54.09z"/>
		<path class="st7" d="M38.96,64.96c-7.05,0-12.58-2.72-16.08-5.13c-4.14-2.84-6.38-5.8-6.47-5.93c-0.39-0.52-0.28-1.26,0.24-1.65
			c0.52-0.39,1.26-0.28,1.65,0.24c0.04,0.05,2.16,2.83,5.99,5.45c5.1,3.48,10.66,5.03,16.52,4.6c0.65-0.05,1.21,0.44,1.26,1.09
			c0.05,0.65-0.44,1.21-1.09,1.26C40.29,64.94,39.62,64.96,38.96,64.96z"/>
		<path class="st7" d="M61.55,39.87c0,0.55-0.45,1-1,1c-0.55,0-1-0.45-1-1c0-0.55,0.45-1,1-1C61.1,38.86,61.55,39.31,61.55,39.87z"
			/>
		<path class="st7" d="M62.77,44.55c0,0.55-0.45,1-1,1c-0.55,0-1-0.45-1-1c0-0.55,0.45-1,1-1C62.32,43.55,62.77,44,62.77,44.55z"/>
		<path class="st7" d="M58.08,45.55c0,0.55-0.45,1-1,1s-1-0.45-1-1c0-0.55,0.45-1,1-1S58.08,45,58.08,45.55z"/>
		<path class="st7" d="M61.21,50.06c0,0.55-0.45,1-1,1c-0.55,0-1-0.45-1-1c0-0.55,0.45-1,1-1C60.76,49.06,61.21,49.51,61.21,50.06z"
			/>
		<path class="st7" d="M58.99,55.55c0,0.55-0.45,1-1,1c-0.55,0-1-0.45-1-1c0-0.55,0.45-1,1-1C58.54,54.55,58.99,55,58.99,55.55z"/>
		<path class="st7" d="M54.96,50.83c0,0.55-0.45,1-1,1c-0.55,0-1-0.45-1-1c0-0.55,0.45-1,1-1C54.51,49.83,54.96,50.28,54.96,50.83z"
			/>
		<path class="st7" d="M54.33,56.03c0,0.55-0.45,1-1,1c-0.55,0-1-0.45-1-1c0-0.55,0.45-1,1-1C53.88,55.03,54.33,55.48,54.33,56.03z"
			/>
		<path class="st7" d="M48.81,56.55c0,0.55-0.45,1-1,1c-0.55,0-1-0.45-1-1c0-0.55,0.45-1,1-1C48.36,55.55,48.81,56,48.81,56.55z"/>
	</g>
</g>
<g id="Camada_5" class="st0">
	<g class="st1">
		<path class="st8" d="M73.61,85.59c-4.87,0-9.16-3.27-10.44-7.96l-5.2-18.99c-1.57-5.75,1.82-11.71,7.57-13.28
			c0.93-0.25,1.88-0.38,2.84-0.38c4.87,0,9.16,3.27,10.44,7.96l5.2,18.99c0.76,2.78,0.39,5.69-1.04,8.21
			c-1.43,2.51-3.75,4.32-6.53,5.08C75.53,85.46,74.57,85.59,73.61,85.59z"/>
		<path class="st8" d="M65.68,38.76c1.82-4.68,2.76-10.47,1.08-13.53c-1.68-3.06-4.44-5.27-7.77-6.24c-0.96-0.28-1.95-0.45-2.95-0.5
			c-5.98-0.31-11.54,3.63-13.21,9.38L38.7,42.07"/>
		<path class="st8" d="M42.83,80.56L42.83,80.56c-2.85,0-5.63-1-7.81-2.81L17.02,62.81c-2.51-2.08-4.06-5.03-4.36-8.3
			c-0.3-3.27,0.68-6.45,2.76-8.95c2.33-2.8,5.77-4.41,9.44-4.41c2.85,0,5.63,1,7.81,2.81L50.67,58.9c2.51,2.08,4.06,5.03,4.36,8.3
			c0.3,3.27-0.68,6.45-2.76,8.95C49.93,78.96,46.49,80.56,42.83,80.56z"/>
		<line class="st8" x1="25.75" y1="69.74" x2="40.8" y2="51.68"/>
		<line class="st8" x1="61" y1="67.28" x2="81.29" y2="62.59"/>
		<path class="st8" d="M20.43,59.21c-2.94-2.94-2.94-7.7,0-10.64"/>
		<path class="st8" d="M62.56,57.91c0-4.31,3.49-7.81,7.8-7.81"/>
		<line class="st8" x1="40.71" y1="37.2" x2="57.88" y2="43.45"/>
		<path class="st8" d="M48.95,29.59c0.73-3.34,4.02-5.46,7.36-4.73"/>
	</g>
</g>
<g id="Camada_6" class="st0">
	<g class="st1">
		<path class="st9" d="M54.47,22.61c0,4.34-3.52,7.85-7.85,7.85c-4.34,0-7.85-3.52-7.85-7.85c0-4.34,3.52-7.85,7.85-7.85
			C50.96,14.76,54.47,18.28,54.47,22.61z"/>
		<path class="st9" d="M46.62,32.93c0,0,3.14,0.14,5.9-1.98s4.59-0.92,6.36,0.99c2.76,3.18,4.1,9.82,0,14.98s-10.53,6.57-11.45,4.52
			c-0.92-2.05,0.78-3.82,3.39-5.16c2.62-1.34,3.82-2.83,2.83-3.75c-0.99-0.92-10.04,4.52-8.91,7c-1.63-2.12-4.45-5.11-5.65-3.46
			c-1.38,1.89,9.62,7.99,7.53,10.11c-2.09,2.12-9.44-1.09-13.26-7.42c-4.01-6.64-1.46-17.51,4.31-18.93
			C41.8,28.81,42.78,32.93,46.62,32.93z"/>
		<path class="st9" d="M38.17,56.67v28.62c0,2,1.62,3.63,3.63,3.63c2,0,3.63-1.62,3.63-3.63V58.83
			C42.11,58.89,39.73,57.79,38.17,56.67z"/>
		<path class="st9" d="M48.44,55.36v29.93c0,2,1.62,3.63,3.63,3.63c2,0,3.63-1.62,3.63-3.63V53.33C54.14,54.21,51.84,55,48.44,55.36
			z"/>
		<g>
			<g>
				<polygon class="st9" points="68.61,47.81 67.47,47.3 64.69,46.06 68.42,41.84 63.66,45.91 63.23,46.27 63.76,46.61 65.68,47.81 
					60.22,50.25 61.35,52.37 67.47,48.53 				"/>
				<polygon class="st9" points="71.49,54.88 71.32,54.17 70.48,50.55 76.76,50.18 69.97,49.77 69.52,49.75 69.58,50.25 
					69.95,53.58 61.47,53.08 61.47,55.48 70.68,54.93 				"/>
				<polygon class="st9" points="69.27,56.5 68.87,56.28 68.75,56.78 67.97,60 62.61,56.74 61.51,58.88 68.11,61.67 69.01,62.06 
					69.09,61.18 69.44,57.35 73.79,58.95 				"/>
			</g>
		</g>
	</g>
</g>
<g id="Camada_7">
	<g>
		<path class="st10" d="M47.8,13.25c0,0-1.18,29.14-1.42,31.14c-0.24,2.01-5.66,2.71-5.66,7.08s2.39,4.25,4.25,4.25
			c1.86,0,4.16-1.42,5.66-1.42c1.5,0,3.54,1.42,5.66,1.42c2.12,0,2.83-2.21,2.83-4.25c0-3.98-3.76-4.73-4.25-7.08
			c-0.49-2.38,0-31.14,0-31.14"/>
		<path class="st10" d="M45.14,89.7c1.5-22.03-1.59-17.43-1.59-25.48c0-3.19,1.68-4.25,4.25-4.25c2.57,0,2.65,1.42,4.25,1.42
			s3.45-1.42,5.66-1.42c1.44,0,1.42,1.95,1.42,2.83c0,4.95-7.08,5.4-7.08,26.9"/>
		<path class="st10" d="M69.03,13.25c0,10.88-2.83,27.07-2.83,29.73c0,3.01,0,11.6,0,14.16c0,2.12-1.42,9.91-1.42,11.32
			c0,1.42,0,21.23,0,21.23"/>
		<path class="st10" d="M32.23,13.25c0,12.84,2.83,22.12,2.83,28.31c0,3.1-1.42,7.43-1.42,14.16c0,9.47,2.83,12.56,2.83,16.99
			c0,1.42,0,16.99,0,16.99"/>
	</g>
	<line class="st10" x1="30.22" y1="45.48" x2="20.96" y2="40.39"/>
	<line class="st10" x1="28.13" y1="53.83" x2="20.96" y2="53.96"/>
	<line class="st10" x1="29.17" y1="62.43" x2="21.61" y2="67.91"/>
	<line class="st10" x1="70.91" y1="45.48" x2="80.17" y2="40.39"/>
	<line class="st10" x1="73" y1="53.83" x2="80.17" y2="53.96"/>
	<line class="st10" x1="71.96" y1="62.43" x2="79.52" y2="67.91"/>
</g>
</svg>
